<svg viewBox="0 0 245 82" fill="none" xmlns="http://www.w3.org/2000/svg">
<g clip-path="url(#clip0_238_228)">
<path d="M242.45 34.638C221.058 34.638 209.85 23.4297 209.85 2.03799V0.000488281H197.629V2.03799C197.629 23.4297 186.421 34.638 165.029 34.638H160.954C139.563 34.638 128.354 23.4297 128.354 2.03799V0.000488281H116.129V2.03799C116.129 23.4297 104.925 34.638 83.5333 34.638H79.4583C58.0667 34.638 46.8583 23.4297 46.8583 2.03799V0.000488281H34.6333V2.03799C34.6333 23.4297 23.4292 34.638 2.03749 34.638H0V46.863H2.03749C23.4292 46.863 34.6333 58.0672 34.6333 79.4588V81.4963H46.8583V79.4588C46.8583 58.0672 58.0667 46.863 79.4583 46.863H83.5333C104.925 46.863 116.129 58.0672 116.129 79.4588V81.4963H128.354V79.4588C128.354 58.0672 139.563 46.863 160.954 46.863H165.029C186.421 46.863 197.629 58.0672 197.629 79.4588V81.4963H209.85V79.4588C209.85 58.0672 221.058 46.863 242.45 46.863H244.488V34.638H242.45Z" fill="currentColor"/>
</g>
<defs>
<clipPath id="clip0_238_228">
<rect width="245" height="82" fill="white"/>
</clipPath>
</defs>
</svg>
